<mxfile host="drawio-plugin" modified="2022-02-16T07:08:54.823Z" agent="5.0 (Windows NT 6.2; Win64; x64) AppleWebKit/537.36 (KHTML, like Gecko) Chrome/89.0.4389.114 Safari/537.36" version="14.7.4" etag="CkKpjN4mH49F6QhJu-AD" type="embed"><diagram id="UzBjmTKug3ugqUVXS3AH" name="Page-1"><mxGraphModel dx="1543" dy="383" grid="1" gridSize="10" guides="1" tooltips="1" connect="1" arrows="1" fold="1" page="1" pageScale="1" pageWidth="850" pageHeight="1100" math="0" shadow="0"><root><mxCell id="0"/><mxCell id="1" parent="0"/><mxCell id="2" value="" style="whiteSpace=wrap;html=1;strokeColor=#dddddd;shadow=1;strokeWidth=1;rounded=1;absoluteArcSize=1;arcSize=2;" parent="1" vertex="1"><mxGeometry x="550" y="50" width="250" height="60" as="geometry"/></mxCell><mxCell id="3" value="flask-vm-dc251eee68354b50 google_compute_instance" style="whiteSpace=wrap;sketch=0;dashed=0;connectable=0;html=1;fillColor=#5184F3;strokeColor=none;part=1;labelPosition=right;verticalLabelPosition=middle;align=left;verticalAlign=middle;spacingLeft=5;fontColor=#999999;fontSize=12;shape=mxgraph.gcp2.hexIcon;prIcon=compute_engine" parent="2" vertex="1"><mxGeometry y="0.5" width="44" height="39" relative="1" as="geometry"><mxPoint x="5" y="-19.5" as="offset"/></mxGeometry></mxCell><mxCell id="4" value="flask-app-firewall google_compute_firewall" style="whiteSpace=wrap;sketch=0;points=[[0,0,0],[0.25,0,0],[0.5,0,0],[0.75,0,0],[1,0,0],[1,0.25,0],[1,0.5,0],[1,0.75,0],[1,1,0],[0.75,1,0],[0.5,1,0],[0.25,1,0],[0,1,0],[0,0.75,0],[0,0.5,0],[0,0.25,0]];rounded=1;absoluteArcSize=1;arcSize=2;html=1;strokeColor=none;gradientColor=none;shadow=0;dashed=0;fontSize=12;fontColor=#9E9E9E;align=left;verticalAlign=top;spacing=10;spacingTop=-4;fillColor=#FBE9E7;" parent="1" vertex="1"><mxGeometry x="50" y="170" width="250" height="60" as="geometry"/></mxCell><mxCell id="5" value="" style="whiteSpace=wrap;html=1;strokeColor=#dddddd;shadow=1;strokeWidth=1;rounded=1;absoluteArcSize=1;arcSize=2;" parent="1" vertex="1"><mxGeometry x="550" y="170" width="250" height="60" as="geometry"/></mxCell><mxCell id="6" value="example-firewall-policy google_compute_firewall_policy" style="whiteSpace=wrap;sketch=0;dashed=0;connectable=0;html=1;fillColor=#5184F3;strokeColor=none;part=1;labelPosition=right;verticalLabelPosition=middle;align=left;verticalAlign=middle;spacingLeft=5;fontColor=#999999;fontSize=12;shape=mxgraph.gcp2.hexIcon;prIcon=cloud_firewall_rules" parent="5" vertex="1"><mxGeometry y="0.5" width="44" height="39" relative="1" as="geometry"><mxPoint x="5" y="-19.5" as="offset"/></mxGeometry></mxCell><mxCell id="7" value="" style="whiteSpace=wrap;html=1;strokeColor=#dddddd;shadow=1;strokeWidth=1;rounded=1;absoluteArcSize=1;arcSize=2;" parent="1" vertex="1"><mxGeometry x="50" y="290" width="250" height="60" as="geometry"/></mxCell><mxCell id="8" value="example-storage-bucket google_storage_bucket" style="whiteSpace=wrap;sketch=0;dashed=0;connectable=0;html=1;fillColor=#757575;strokeColor=none;part=1;labelPosition=right;verticalLabelPosition=middle;align=left;verticalAlign=middle;spacingLeft=5;fontSize=12;shape=mxgraph.gcp2.bucket" parent="7" vertex="1"><mxGeometry y="0.5" width="32" height="32" relative="1" as="geometry"><mxPoint x="5" y="-16" as="offset"/></mxGeometry></mxCell><mxCell id="9" value="" style="whiteSpace=wrap;html=1;strokeColor=#dddddd;shadow=1;strokeWidth=1;rounded=1;absoluteArcSize=1;arcSize=2;" parent="1" vertex="1"><mxGeometry x="550" y="290" width="250" height="60" as="geometry"/></mxCell><mxCell id="10" value="sql-database-cloud google_sql_database" style="whiteSpace=wrap;sketch=0;dashed=0;connectable=0;html=1;fillColor=#5184F3;strokeColor=none;part=1;labelPosition=right;verticalLabelPosition=middle;align=left;verticalAlign=middle;spacingLeft=5;fontColor=#999999;fontSize=12;shape=mxgraph.gcp2.hexIcon;prIcon=cloud_sql" parent="9" vertex="1"><mxGeometry y="0.5" width="44" height="39" relative="1" as="geometry"><mxPoint x="5" y="-19.5" as="offset"/></mxGeometry></mxCell><mxCell id="11" value="" style="whiteSpace=wrap;html=1;strokeColor=#dddddd;shadow=1;strokeWidth=1;rounded=1;absoluteArcSize=1;arcSize=2;" parent="1" vertex="1"><mxGeometry x="50" y="410" width="250" height="60" as="geometry"/></mxCell><mxCell id="12" value="test-cluster-containers google_container_cluster" style="whiteSpace=wrap;html=1;sketch=0;dashed=0;connectable=0;html=1;fillColor=#5184F3;strokeColor=none;part=1;labelPosition=right;verticalLabelPosition=middle;align=left;verticalAlign=middle;spacingLeft=5;fontColor=#999999;fontSize=12;shape=mxgraph.gcp2.kubernetes_logo" parent="11" vertex="1"><mxGeometry width="45" height="45" relative="1" as="geometry"><mxPoint x="5" y="7" as="offset"/></mxGeometry></mxCell><mxCell id="13" value="" style="whiteSpace=wrap;html=1;strokeColor=#dddddd;shadow=1;strokeWidth=1;rounded=1;absoluteArcSize=1;arcSize=2;" parent="1" vertex="1"><mxGeometry x="550" y="410" width="250" height="60" as="geometry"/></mxCell><mxCell id="14" value="test-app-engine google_app_engine_application" style="whiteSpace=wrap;sketch=0;dashed=0;connectable=0;html=1;fillColor=#5184F3;strokeColor=none;part=1;labelPosition=right;verticalLabelPosition=middle;align=left;verticalAlign=middle;spacingLeft=5;fontColor=#999999;fontSize=12;shape=mxgraph.gcp2.hexIcon;prIcon=app_engine" parent="13" vertex="1"><mxGeometry y="0.5" width="44" height="39" relative="1" as="geometry"><mxPoint x="5" y="-19.5" as="offset"/></mxGeometry></mxCell><mxCell id="15" value="" style="whiteSpace=wrap;html=1;strokeColor=#dddddd;shadow=1;strokeWidth=1;rounded=1;absoluteArcSize=1;arcSize=2;" parent="1" vertex="1"><mxGeometry x="50" y="530" width="250" height="60" as="geometry"/></mxCell><mxCell id="16" value="random_id" style="whiteSpace=wrap;sketch=0;dashed=0;connectable=0;html=1;fillColor=#757575;strokeColor=none;part=1;labelPosition=right;verticalLabelPosition=middle;align=left;verticalAlign=middle;spacingLeft=5;fontSize=12;shape=mxgraph.gcp2.blank" parent="15" vertex="1"><mxGeometry y="0.5" width="32" height="32" relative="1" as="geometry"><mxPoint x="5" y="-16" as="offset"/></mxGeometry></mxCell><mxCell id="17" value="" style="whiteSpace=wrap;html=1;strokeColor=#dddddd;shadow=1;strokeWidth=1;rounded=1;absoluteArcSize=1;arcSize=2;" parent="1" vertex="1"><mxGeometry x="550" y="530" width="250" height="60" as="geometry"/></mxCell><mxCell id="18" value="api-gateway google_api_gateway_api" style="whiteSpace=wrap;sketch=0;dashed=0;connectable=0;html=1;fillColor=#757575;strokeColor=none;part=1;labelPosition=right;verticalLabelPosition=middle;align=left;verticalAlign=middle;spacingLeft=5;fontSize=12;shape=mxgraph.gcp2.gateway" parent="17" vertex="1"><mxGeometry y="0.5" width="32" height="32" relative="1" as="geometry"><mxPoint x="5" y="-16" as="offset"/></mxGeometry></mxCell><mxCell id="6942" value="Lakers Fan" style="sketch=0;points=[[0,0,0],[0.25,0,0],[0.5,0,0],[0.75,0,0],[1,0,0],[1,0.25,0],[1,0.5,0],[1,0.75,0],[1,1,0],[0.75,1,0],[0.5,1,0],[0.25,1,0],[0,1,0],[0,0.75,0],[0,0.5,0],[0,0.25,0]];rounded=1;absoluteArcSize=1;arcSize=2;html=1;strokeColor=none;gradientColor=none;shadow=0;dashed=0;fontSize=12;fontColor=#9E9E9E;align=left;verticalAlign=top;spacing=10;spacingTop=-4;&quot;" parent="1" vertex="1"><mxGeometry x="60" y="60" width="120" height="70" as="geometry"><Array as="points"><mxPoint x="325" y="20"/><mxPoint x="325" y="500"/></Array></mxGeometry></mxCell><mxCell id="19" value="" style="whiteSpace=wrap;html=1;edgeStyle=orthogonalEdgeStyle;fontSize=12;html=1;endArrow=blockThin;endFill=1;rounded=0;strokeWidth=2;endSize=4;startSize=4;" parent="1" source="2" target="15" edge="1"><mxGeometry relative="1" as="geometry"><mxPoint x="675" y="80" as="sourcePoint"/><mxPoint x="175" y="560" as="targetPoint"/><Array as="points"><mxPoint x="-75" y="440"/><mxPoint x="-75" y="560"/></Array></mxGeometry></mxCell><mxCell id="20" value="" style="whiteSpace=wrap;html=1;edgeStyle=orthogonalEdgeStyle;fontSize=12;html=1;endArrow=blockThin;endFill=1;rounded=0;strokeWidth=2;endSize=4;startSize=4;" parent="1" source="11" target="15" edge="1"><mxGeometry relative="1" as="geometry"><mxPoint x="175" y="440" as="sourcePoint"/><mxPoint x="175" y="560" as="targetPoint"/></mxGeometry></mxCell><mxCell id="21" value="" style="whiteSpace=wrap;html=1;edgeStyle=orthogonalEdgeStyle;fontSize=12;html=1;endArrow=blockThin;endFill=1;rounded=0;strokeWidth=2;endSize=4;startSize=4;" parent="1" source="17" target="15" edge="1"><mxGeometry relative="1" as="geometry"><mxPoint x="675" y="560" as="sourcePoint"/><mxPoint x="175" y="560" as="targetPoint"/></mxGeometry></mxCell></root></mxGraphModel></diagram></mxfile>